<svg data-v-423bf9ae="" xmlns="http://www.w3.org/2000/svg" viewBox="0 0 508 112" class="iconLeft"><!----><!----><!----><g data-v-423bf9ae="" id="e635c73d-a6c0-4282-afe7-874d7c3d584b" fill="#04291D" transform="matrix(4.622496128082275,0,0,4.622496128082275,128.161376953125,10.578908920288086)"><path d="M5.56 13.34C8.53 13.34 10.50 11.17 10.50 8.46C10.50 5.75 8.53 3.59 5.56 3.59C2.58 3.59 0.61 5.75 0.61 8.46C0.61 11.17 2.58 13.34 5.56 13.34ZM5.56 12.02C3.47 12.02 2.16 10.37 2.16 8.46C2.16 6.53 3.47 4.91 5.56 4.91C7.64 4.91 8.95 6.53 8.95 8.46C8.95 10.37 7.64 12.02 5.56 12.02ZM16.92 3.24L16.92 7.32C16.41 6.72 15.68 6.36 14.73 6.36C13.01 6.36 11.64 7.69 11.64 9.84C11.64 12.00 13.01 13.31 14.73 13.31C15.72 13.31 16.49 12.91 17.00 12.25L17.18 13.15L18.33 13.15L18.33 3.24ZM15.06 12.12C13.87 12.12 13.08 11.14 13.08 9.84C13.08 8.55 13.87 7.55 15.06 7.55C16.30 7.55 17.11 8.55 17.11 9.84C17.11 11.14 16.30 12.12 15.06 12.12ZM20.94 5.26C21.45 5.26 21.86 4.86 21.86 4.36C21.86 3.86 21.45 3.46 20.94 3.46C20.43 3.46 20.02 3.86 20.02 4.36C20.02 4.86 20.43 5.26 20.94 5.26ZM20.26 13.15L21.64 13.15L21.64 6.53L20.26 6.53ZM27.02 6.36C26.09 6.36 25.38 6.74 24.98 7.32L24.81 6.53L23.57 6.53L23.57 13.15L24.98 13.15L24.98 9.11C25.10 7.95 25.89 7.57 26.63 7.57C27.65 7.57 28.09 8.30 28.09 9.38L28.09 13.15L29.50 13.15L29.50 9.06C29.50 7 28.18 6.36 27.02 6.36ZM41.23 9.93C40.92 9.42 40.42 9.10 39.83 8.88C41.27 8.62 42.34 7.82 42.34 6.34C42.34 4.83 40.89 3.82 39.19 3.82L35.17 3.82L35.17 13.15L36.66 13.15L36.66 9.06C36.79 9.07 36.95 9.07 37.14 9.07C37.93 9.09 39.04 9.20 39.67 10.11C40.31 11.00 40.48 12.16 41.02 13.15L42.88 13.15C42.13 12.18 41.87 11.04 41.23 9.93ZM38.78 5.00C40.06 5.00 40.79 5.57 40.79 6.53C40.79 7.45 40.18 8.01 39.01 8.01L36.66 8.01L36.66 5.00ZM50.08 9.70C50.08 7.73 48.75 6.36 46.83 6.36C44.83 6.36 43.41 7.89 43.41 9.84C43.41 11.80 44.81 13.31 46.99 13.31C48.14 13.31 49.10 12.92 49.70 12.25L48.72 11.46C48.30 11.94 47.73 12.19 46.97 12.19C45.73 12.19 45.00 11.33 44.90 10.15L50.08 10.15ZM46.83 7.50C47.86 7.50 48.53 8.12 48.68 9.17L44.96 9.17C45.16 8.17 45.85 7.50 46.83 7.50ZM54.59 13.34C55.50 13.34 56.25 13.07 56.86 12.60L56.04 11.58C55.68 11.93 55.17 12.13 54.61 12.13C53.32 12.13 52.54 11.14 52.54 9.84C52.54 8.55 53.32 7.57 54.61 7.57C55.17 7.57 55.68 7.77 56.04 8.12L56.86 7.10C56.25 6.64 55.50 6.36 54.59 6.36C52.53 6.36 51.10 7.89 51.10 9.84C51.10 11.81 52.53 13.34 54.59 13.34ZM58.81 5.26C59.33 5.26 59.73 4.86 59.73 4.36C59.73 3.86 59.33 3.46 58.81 3.46C58.30 3.46 57.90 3.86 57.90 4.36C57.90 4.86 58.30 5.26 58.81 5.26ZM58.13 13.15L59.51 13.15L59.51 6.53L58.13 6.53ZM65.07 6.36C64.08 6.36 63.32 6.77 62.80 7.42L62.68 6.53L61.44 6.53L61.44 16.22L62.85 16.22L62.85 12.32C63.36 12.94 64.11 13.31 65.07 13.31C66.79 13.31 68.16 12.00 68.16 9.84C68.16 7.69 66.79 6.36 65.07 6.36ZM64.74 12.12C63.50 12.12 62.69 11.14 62.69 9.84C62.69 8.55 63.50 7.55 64.74 7.55C65.93 7.55 66.72 8.55 66.72 9.84C66.72 11.14 65.93 12.12 64.74 12.12ZM75.85 9.70C75.85 7.73 74.52 6.36 72.60 6.36C70.60 6.36 69.18 7.89 69.18 9.84C69.18 11.80 70.58 13.31 72.76 13.31C73.91 13.31 74.87 12.92 75.47 12.25L74.49 11.46C74.07 11.94 73.50 12.19 72.74 12.19C71.50 12.19 70.77 11.33 70.67 10.15L75.85 10.15ZM72.60 7.50C73.63 7.50 74.30 8.12 74.45 9.17L70.73 9.17C70.93 8.17 71.62 7.50 72.60 7.50ZM76.59 12.22C77.07 12.88 78.08 13.34 79.32 13.34C80.95 13.34 81.96 12.54 81.96 11.35C81.96 9.00 78.46 9.79 78.46 8.36C78.46 7.86 78.84 7.53 79.61 7.51C80.09 7.50 80.65 7.73 81.04 8.11L81.81 7.22C81.38 6.75 80.53 6.36 79.55 6.36C77.98 6.36 77.01 7.19 77.01 8.41C77.01 10.82 80.46 10.09 80.46 11.38C80.46 11.87 80.05 12.21 79.23 12.21C78.58 12.21 77.98 11.97 77.50 11.35Z"></path></g><defs data-v-423bf9ae=""><linearGradient data-v-423bf9ae="" gradientTransform="rotate(25)" id="746fe46b-f9d8-447b-a841-a388b76c38c2" x1="0%" y1="0%" x2="100%" y2="0%"><stop data-v-423bf9ae="" offset="0%" style="stop-color: rgb(1, 105, 90); stop-opacity: 1;"></stop><stop data-v-423bf9ae="" offset="100%" style="stop-color: rgb(44, 194, 111); stop-opacity: 1;"></stop></linearGradient></defs><g data-v-423bf9ae="" id="3922959c-e060-4462-ae1b-ae184d2402f4" transform="matrix(1.111113429069519,0,0,1.111113429069519,0.5094583034515381,0.4442331790924072)" stroke="none" fill="url(#746fe46b-f9d8-447b-a841-a388b76c38c2)"><path d="M0 66.828v4.428C1.098 78.679 25.121 100 30.618 100h38.647c5.496 0 29.52-21.321 30.617-28.745v-4.428H0zM71.614 43.042c.178-.138 4.363-3.416 4.585-7.457a1.25 1.25 0 0 0-2.496-.138c-.159 2.894-3.585 5.59-3.619 5.617.068-.054.142-.099.221-.137l-.22.136a1.25 1.25 0 0 0 1.529 1.979zM73.628 59.742c-1.531-.398-4.713-.451-5.791 2.199a1.25 1.25 0 0 0 2.317.941c.522-1.285 2.822-.727 2.846-.721a1.25 1.25 0 1 0 .628-2.419zM97.637 54.542c-4.474 2.049-9.854 7.622-7.916 8.641 1.937 1.019 4.706-.634 7.666-2.979 2.96-2.346 3.582-7.19.25-5.662zM61.918 38.932c-1.984.083-4.756.5-5.922 3.162l-.179.4c-.428.95-.87 1.933-.446 2.971.418 1.026 1.509 1.563 2.412 1.917 2.985 1.168 6.558.515 8.132-1.489.867-1.103.915-2.818.121-4.369-.854-1.67-2.432-2.662-4.118-2.592zm2.032 5.415c-.785 1-3.138 1.535-5.257.706-.858-.336-1.015-.549-1.021-.558.013.018.026.06.026.082-.004-.166.229-.681.397-1.057l.189-.424c.333-.76 1.038-1.554 3.735-1.666 1.052-.044 1.635.932 1.789 1.232.364.706.357 1.411.142 1.685zM45.879 40.212c-2.1-.233-3.716 1.188-5.191 2.664-.718.718-1.805 1.804-1.741 3.219.043.942.568 1.821 1.605 2.685l.433.365c1.905 1.614 3.228 2.514 6.265.742 2.726-1.59 2.892-2.827 2.829-4.401a12.458 12.458 0 0 1-.014-.52c0-2.211-2.61-4.578-4.186-4.754zm1.686 4.754c0 .227.008.436.016.62.038.935.048 1.186-1.59 2.142-1.665.971-1.828.833-3.389-.49l-.448-.378c-.513-.427-.702-.74-.708-.877-.014-.313.731-1.058 1.011-1.338 1.275-1.276 2.247-2.047 3.148-1.947a.112.112 0 0 1-.02-.003c.544.119 1.98 1.457 1.98 2.271zM56.561 53.749c-2.514-1.143-8.519-3.468-9.985-.387-.312.652-.946 1.363-1.505 1.991-.972 1.09-1.891 2.119-1.584 3.334.178.704.714 1.224 1.596 1.544 2.937 1.067 6.611 2.107 8.979.66 1.943-1.187 2.591-3.593 2.939-4.885.06-.222.134-.497.168-.579.264-.623.008-1.398-.608-1.678zm-3.802 5.009c-1.567.957-5.169-.279-6.616-.802.218-.291.543-.66.793-.939.667-.748 1.421-1.596 1.887-2.563.468-.384 2.977.054 5.699 1.143-.284 1.033-.751 2.543-1.763 3.161zm40.517-12.027c-.113-2.714-.481-3.339-1.594-4.566l-.152-.169c-.955-1.061-2.239-1.506-3.617-1.254-2.114.387-3.903 2.264-4.513 3.833-.162.416-.369.821-.569 1.212-.708 1.388-1.59 3.115-.028 5.157 2.014 2.633 4.144 2.804 7.122.571.692-.52 1.203-.82 1.614-1.062 1.553-.915 1.829-1.507 1.737-3.722zM53.9 29.78c-1.739-.263-5.884-.635-6.811 1.589-.745 1.788-.512 5.102-.483 5.473a1.25 1.25 0 0 0 1.068 1.14c.56.081 5.534.75 7.9-.432 1.425-.713 2.113-2.375 1.756-4.234-.38-1.975-1.791-3.4-3.43-3.536zM12.602 38.844l.034-.005c-.534-3.589-.841-5.708-1.377-8.776C8.242 12.813 5.494-.235 3.57.003c-.01 0-.018 0-.023.003l-.015.001-.015.003-.023.004C1.574.28 3.063 15.05 5.883 32c.511 3.074.816 4.243 1.438 7.875 0 0-5.53 4.177-4.374 9.492.861 3.958 5.42 14.332 5.897 14.928-1.103-6.002-1.398-13.729.102-13.729 1-.25 3.438 8 4.875 13.063 0 0-.313-13.813.875-13.875 1.517-.08 2.989 7.23 3.477 13.313.307-.7 2.024-11.899 1.832-15.946-.26-5.433-7.403-8.277-7.403-8.277z"></path><path d="M83.373 56.922c-.315-.737-1.683-2.813-6.615-1.704.046-1.517-.463-2.974-1.506-4.083-1.335-1.42-3.201-1.956-4.87-1.399-1.011.337-2.653 1.342-3.415 4.284-1.672-.634-3.307-.628-4.577.064-1.169.638-1.877 1.803-1.895 3.115-.025 1.972 1.443 3.963 4.03 5.462a1.248 1.248 0 0 0 1.708-.454 1.248 1.248 0 0 0-.454-1.708c-2.068-1.199-2.794-2.474-2.784-3.267.007-.525.325-.808.592-.953.672-.366 1.982-.387 3.646.654.364.229.82.253 1.207.065.388-.187.651-.56.698-.987.236-2.129.978-3.553 2.034-3.904.723-.241 1.608.049 2.258.739.887.944 1.092 2.311.549 3.656a1.248 1.248 0 0 0 1.559 1.652c3.688-1.245 5.347-.692 5.537-.249.213.496-.568 2.099-3.336 3.555a1.25 1.25 0 1 0 1.164 2.212c3.594-1.889 5.39-4.603 4.47-6.75zm-46.892-.776c1.012-1.692 1.121-3.712.675-5.244-.505-1.736-1.662-2.902-3.094-3.118-.93-.14-2.246.08-3.703 1.567-.794-1.249-1.797-2.044-2.898-2.234-1.053-.182-2.059.205-2.759 1.062-1.244 1.521-1.286 4.226-.113 7.235a1.25 1.25 0 0 0 2.329-.908c-1.06-2.719-.675-4.262-.28-4.745.156-.191.283-.199.397-.18.394.068 1.234.674 1.892 2.514a1.252 1.252 0 0 0 2.221.266c1.1-1.668 2.034-2.181 2.542-2.104.429.064.848.592 1.066 1.344.363 1.246.153 3.005-1.133 4.123a1.252 1.252 0 0 0 .421 2.128c2.981 1.008 3.832 2.374 3.676 3.047-.163.704-1.434 1.311-3.469 1.048a1.25 1.25 0 1 0-.32 2.478c3.716.48 5.804-1.142 6.226-2.963.374-1.628-.459-3.767-3.676-5.316z"></path><path d="M32.489 58.288c-.138-.196-1.4-1.92-3.115-2.129-.814-.1-1.591.147-2.246.715a1.25 1.25 0 0 0 1.636 1.891c.163-.141.249-.131.306-.124.424.05 1.074.667 1.38 1.093l-.003-.004a1.251 1.251 0 0 0 2.042-1.442z"></path></g><!----></svg>